<svg width="72" height="72" viewBox="0 0 72 72" fill="none" xmlns="http://www.w3.org/2000/svg">
<path d="M64.8039 35.4533L47.6356 29.0642C45.3685 28.221 43.5846 26.4314 42.7498 24.1615L36.4189 6.96608C36.2542 6.51516 35.6167 6.51407 35.4452 6.96441L29.0613 24.1383C28.2182 26.4054 26.4285 28.1893 24.1586 29.0242L6.96371 35.3551C6.51279 35.5199 6.5117 36.1573 6.96226 36.3234L24.1355 42.7126C26.4026 43.5557 28.1865 45.3454 29.0213 47.6153L35.3469 64.8051C35.517 65.2611 36.154 65.262 36.3206 64.8067L42.7097 47.6384C43.5529 45.3713 45.3425 43.5875 47.6125 42.7526L64.8024 36.4216C65.2533 36.2568 65.2544 35.6194 64.8039 35.4533ZM35.8747 40.7492C33.1917 40.7449 31.0201 38.5659 31.0252 35.8777C31.0295 33.1947 33.2085 31.0232 35.8913 31.028C38.5741 31.0328 40.7458 33.2113 40.741 35.8941C40.7366 38.582 38.5577 40.7536 35.8747 40.7492Z" fill="black"/>
<path d="M35.4971 65.6096C35.2098 65.5104 34.9772 65.2875 34.865 64.9874L28.5382 47.7945C27.7548 45.6645 26.0846 43.9898 23.9573 43.1988L6.78409 36.8096C6.37398 36.658 6.10938 36.2773 6.10959 35.839C6.11047 35.4004 6.3767 35.02 6.78832 34.8691L23.9826 28.5384C26.113 27.7551 27.7878 26.085 28.5788 23.9577L34.9625 6.78422C35.1197 6.37057 35.5044 6.10733 35.9431 6.10936C36.3807 6.11317 36.7578 6.37936 36.9075 6.78834L43.2381 23.9826C44.0206 26.1122 45.6908 27.7869 47.8184 28.5786L64.9869 34.9672C65.3976 35.1201 65.6621 35.5014 65.6613 35.9395C65.6606 36.3776 65.3939 36.7578 64.9826 36.9077L47.7931 43.2389C45.6633 44.0219 43.9886 45.6921 43.1976 47.8194L36.8085 64.9877C36.6583 65.3972 36.2788 65.6644 35.8419 65.6663C35.7207 65.6666 35.6048 65.6469 35.4961 65.6093L35.4971 65.6096ZM35.9352 7.14556L29.5497 24.3195C28.6535 26.7305 26.7541 28.6227 24.3401 29.5113L7.14537 35.8418L24.3186 42.2277C26.7296 43.1238 28.6215 45.0226 29.5106 47.4368L35.8366 64.6272L42.2275 47.4584C43.1237 45.0474 45.0224 43.1555 47.4364 42.2669L64.6226 35.9373L47.4576 29.5499C45.0458 28.6529 43.154 26.7536 42.2662 24.3405L35.9354 7.14507L35.9352 7.14556ZM34.136 40.975C32.0252 40.2456 30.5058 38.2345 30.5099 35.8775C30.515 32.9131 32.9306 30.5055 35.8945 30.5105C37.3299 30.5111 38.6791 31.0738 39.6936 32.0913C40.7069 33.1089 41.2638 34.4597 41.2615 35.8951C41.2593 37.3333 40.6979 38.6835 39.6808 39.6986C38.664 40.7128 37.3132 41.2696 35.8771 41.2677C35.268 41.267 34.6823 41.1638 34.1365 40.9752L34.136 40.975ZM37.307 31.7827C36.8581 31.6276 36.382 31.5464 35.8934 31.5458C33.5002 31.5418 31.5501 33.4856 31.5457 35.8787C31.5425 38.2744 33.4856 40.2264 35.8785 40.2314C37.0379 40.2331 38.1281 39.7835 38.9497 38.9649C39.7709 38.1456 40.2239 37.055 40.2263 35.8936C40.2281 34.7341 39.779 33.6441 38.9603 32.8226C38.4871 32.3478 37.9233 31.9957 37.3075 31.7829L37.307 31.7827Z" fill="black"/>
</svg>
